<svg width="240" height="48" viewBox="0 0 240 48" fill="none" xmlns="http://www.w3.org/2000/svg">
<path d="M40.153 21.1292H35.8944L29.2022 7.69376H23.1184V47.3893H17.0346V7.69376H10.7661L4.07397 21.1292H0L5.47541 4.64026H34.6776L40.153 21.1292Z" fill="#171717"/>
<path d="M48.1217 36.2767L78.4809 4.02954H79.0892V47.3893H73.8583L75.9876 15.7528L45.6284 48H45.02V4.64024H50.251L48.1217 36.2767Z" fill="#171717"/>
<path d="M123.62 47.3893H119.546L96.5476 26.8709H96.1185V47.3893H90.0347V4.64026H96.1185V24.1227H97.2755L111.817 4.64026H118.873L102.142 22.536L123.62 47.3893Z" fill="#171717"/>
<path d="M159.395 21.1292H155.137L148.444 7.69376H142.361V47.3893H136.277V7.69376H130.008L123.316 21.1292H119.242L124.718 4.64026H153.92L159.395 21.1292Z" fill="#171717"/>
<path d="M186.099 4.15495C189.83 4.5639 193.128 5.73077 195.985 7.66648C198.842 9.60218 201.064 12.154 202.644 15.333C204.225 18.5064 205.018 22.0725 205.018 26.0202C205.018 29.968 204.073 33.8666 202.188 37.2255C200.303 40.5843 197.718 43.2234 194.431 45.1319C191.145 47.0458 187.473 48 183.421 48C179.368 48 175.512 47.073 172.225 45.2191C168.939 43.3652 166.386 40.7697 164.561 37.4327C162.736 34.0956 161.823 30.2897 161.823 26.0148C161.823 22.187 162.633 18.6973 164.257 15.5402C165.881 12.3831 168.13 9.80938 171.009 7.8137C173.888 5.81802 177.13 4.61843 180.743 4.20947V0H186.099V4.15495ZM191.27 42.8418C193.54 41.2332 195.306 38.9649 196.561 36.0314C197.815 33.0978 198.445 29.739 198.445 25.9548C198.445 22.6559 197.929 19.6569 196.892 16.9469C195.86 14.2424 194.41 12.0232 192.541 10.2892C190.672 8.56072 188.527 7.44837 186.093 6.96308V14.0461H180.737V6.96308C178.266 7.4102 176.093 8.48983 174.23 10.202C172.361 11.9141 170.922 14.1225 169.911 16.827C168.896 19.537 168.39 22.5796 168.39 25.9548C168.39 29.6626 169.031 32.9778 170.308 35.9114C171.584 38.8449 173.361 41.1351 175.631 42.7818C177.902 44.4285 180.498 45.2573 183.421 45.2573C186.343 45.2573 188.999 44.4558 191.27 42.8472V42.8418Z" fill="#171717"/>
<path d="M230.603 6.65775C233.623 7.99911 235.948 9.91301 237.567 12.3994C239.191 14.8859 240 17.8358 240 21.2546C240 24.4281 239.136 27.2907 237.414 29.8371C235.687 32.3835 233.308 34.3683 230.266 35.7915C227.224 37.2146 223.797 37.9289 219.983 37.9289H218.707V47.3948H212.623V4.64026H219.983C224.041 4.64026 227.577 5.31094 230.597 6.65775H230.603ZM219.685 35.4207C222.52 35.4207 225.008 34.8318 227.137 33.6486C229.267 32.4708 230.907 30.7968 232.064 28.643C233.221 26.4837 233.797 24.0246 233.797 21.2546C233.797 16.8979 232.558 13.4573 230.087 10.9327C227.61 8.40806 224.144 7.12668 219.685 7.08306H218.712V35.4207H219.685Z" fill="#171717"/>
</svg>
